%TF.GenerationSoftware,KiCad,Pcbnew,7.0.1-2.fc37*%
%TF.CreationDate,2023-04-06T16:15:49-04:00*%
%TF.ProjectId,synthesizer,73796e74-6865-4736-997a-65722e6b6963,rev?*%
%TF.SameCoordinates,Original*%
%TF.FileFunction,Copper,L1,Top*%
%TF.FilePolarity,Positive*%
%FSLAX46Y46*%
G04 Gerber Fmt 4.6, Leading zero omitted, Abs format (unit mm)*
G04 Created by KiCad (PCBNEW 7.0.1-2.fc37) date 2023-04-06 16:15:49*
%MOMM*%
%LPD*%
G01*
G04 APERTURE LIST*
G04 Aperture macros list*
%AMRoundRect*
0 Rectangle with rounded corners*
0 $1 Rounding radius*
0 $2 $3 $4 $5 $6 $7 $8 $9 X,Y pos of 4 corners*
0 Add a 4 corners polygon primitive as box body*
4,1,4,$2,$3,$4,$5,$6,$7,$8,$9,$2,$3,0*
0 Add four circle primitives for the rounded corners*
1,1,$1+$1,$2,$3*
1,1,$1+$1,$4,$5*
1,1,$1+$1,$6,$7*
1,1,$1+$1,$8,$9*
0 Add four rect primitives between the rounded corners*
20,1,$1+$1,$2,$3,$4,$5,0*
20,1,$1+$1,$4,$5,$6,$7,0*
20,1,$1+$1,$6,$7,$8,$9,0*
20,1,$1+$1,$8,$9,$2,$3,0*%
G04 Aperture macros list end*
%TA.AperFunction,SMDPad,CuDef*%
%ADD10RoundRect,0.075000X-0.662500X-0.075000X0.662500X-0.075000X0.662500X0.075000X-0.662500X0.075000X0*%
%TD*%
%TA.AperFunction,SMDPad,CuDef*%
%ADD11RoundRect,0.075000X-0.075000X-0.662500X0.075000X-0.662500X0.075000X0.662500X-0.075000X0.662500X0*%
%TD*%
%TA.AperFunction,ComponentPad*%
%ADD12C,2.000000*%
%TD*%
%TA.AperFunction,ComponentPad*%
%ADD13C,1.600000*%
%TD*%
%TA.AperFunction,ComponentPad*%
%ADD14RoundRect,0.250000X-0.550000X-0.550000X0.550000X-0.550000X0.550000X0.550000X-0.550000X0.550000X0*%
%TD*%
%TA.AperFunction,ComponentPad*%
%ADD15O,1.600000X1.600000*%
%TD*%
%TA.AperFunction,ComponentPad*%
%ADD16R,1.600000X1.600000*%
%TD*%
%TA.AperFunction,ComponentPad*%
%ADD17O,2.720000X3.240000*%
%TD*%
%TA.AperFunction,ComponentPad*%
%ADD18R,1.800000X1.800000*%
%TD*%
%TA.AperFunction,ComponentPad*%
%ADD19C,1.800000*%
%TD*%
%TA.AperFunction,ComponentPad*%
%ADD20C,3.500000*%
%TD*%
%TA.AperFunction,ComponentPad*%
%ADD21RoundRect,0.250002X-1.499998X-1.499998X1.499998X-1.499998X1.499998X1.499998X-1.499998X1.499998X0*%
%TD*%
%TA.AperFunction,ViaPad*%
%ADD22C,0.800000*%
%TD*%
%TA.AperFunction,Conductor*%
%ADD23C,0.250000*%
%TD*%
G04 APERTURE END LIST*
D10*
%TO.P,MSP430FR1,1,P1.2/UCB0SIMO/UCB0SDA/TB0TRG/OA0-/A2/Veref-*%
%TO.N,/P1.2*%
X72077500Y-87500000D03*
%TO.P,MSP430FR1,2,P1.1/UCB0CLK/ACLK/OA0O/COMP0.1/A1*%
%TO.N,/P1.1*%
X72077500Y-88000000D03*
%TO.P,MSP430FR1,3,P1.0/UCB0STE/SMCLK/COMP0.0/A0/Veref+*%
%TO.N,/P1.0*%
X72077500Y-88500000D03*
%TO.P,MSP430FR1,4,TEST/SBWTCK*%
%TO.N,unconnected-(MSP430FR1-TEST{slash}SBWTCK-Pad4)*%
X72077500Y-89000000D03*
%TO.P,MSP430FR1,5,RST/NMI/SBWTDIO*%
%TO.N,unconnected-(MSP430FR1-RST{slash}NMI{slash}SBWTDIO-Pad5)*%
X72077500Y-89500000D03*
%TO.P,MSP430FR1,6,DVCC*%
%TO.N,/3v3*%
X72077500Y-90000000D03*
%TO.P,MSP430FR1,7,DVSS*%
%TO.N,/GND*%
X72077500Y-90500000D03*
%TO.P,MSP430FR1,8,P2.7/TB0CLK/XIN*%
%TO.N,/P2.7*%
X72077500Y-91000000D03*
%TO.P,MSP430FR1,9,P2.6/MCLK/XOUT*%
%TO.N,/P2.6*%
X72077500Y-91500000D03*
%TO.P,MSP430FR1,10,P2.5/COMP1.0*%
%TO.N,/P2.5*%
X72077500Y-92000000D03*
%TO.P,MSP430FR1,11,P2.4/COMP1.1*%
%TO.N,/P2.4*%
X72077500Y-92500000D03*
%TO.P,MSP430FR1,12,P4.7/UCB1SOMI/UCB1SCL*%
%TO.N,/Square_PWM*%
X72077500Y-93000000D03*
D11*
%TO.P,MSP430FR1,13,P4.6/UCB1SIMO/UCB1SDA*%
%TO.N,/Triangle_PWM*%
X73490000Y-94412500D03*
%TO.P,MSP430FR1,14,P4.5/UCB1CLK*%
%TO.N,/Sawtooth_PWM*%
X73990000Y-94412500D03*
%TO.P,MSP430FR1,15,P4.4/UCB1STE*%
%TO.N,/Sine_PWM*%
X74490000Y-94412500D03*
%TO.P,MSP430FR1,16,P6.6/TB3CLK*%
%TO.N,unconnected-(MSP430FR1-P6.6{slash}TB3CLK-Pad16)*%
X74990000Y-94412500D03*
%TO.P,MSP430FR1,17,P6.5/TB3.6*%
%TO.N,unconnected-(MSP430FR1-P6.5{slash}TB3.6-Pad17)*%
X75490000Y-94412500D03*
%TO.P,MSP430FR1,18,P6.4/TB3.5*%
%TO.N,unconnected-(MSP430FR1-P6.4{slash}TB3.5-Pad18)*%
X75990000Y-94412500D03*
%TO.P,MSP430FR1,19,P6.3/TB3.4*%
%TO.N,unconnected-(MSP430FR1-P6.3{slash}TB3.4-Pad19)*%
X76490000Y-94412500D03*
%TO.P,MSP430FR1,20,P6.2/TB3.3*%
%TO.N,unconnected-(MSP430FR1-P6.2{slash}TB3.3-Pad20)*%
X76990000Y-94412500D03*
%TO.P,MSP430FR1,21,P6.1/TB3.2*%
%TO.N,unconnected-(MSP430FR1-P6.1{slash}TB3.2-Pad21)*%
X77490000Y-94412500D03*
%TO.P,MSP430FR1,22,P6.0/TB3.1*%
%TO.N,unconnected-(MSP430FR1-P6.0{slash}TB3.1-Pad22)*%
X77990000Y-94412500D03*
%TO.P,MSP430FR1,23,P4.3/UCA1TXD/UCA1SIMO/UCA1TXD*%
%TO.N,/UART_MSP_TX*%
X78490000Y-94412500D03*
%TO.P,MSP430FR1,24,P4.2/UCA1RXD/UCA1SOMI/UCA1RXD*%
%TO.N,/UART_MSP_RX*%
X78990000Y-94412500D03*
D10*
%TO.P,MSP430FR1,25,P4.1/UCA1CLK*%
%TO.N,unconnected-(MSP430FR1-P4.1{slash}UCA1CLK-Pad25)*%
X80402500Y-93000000D03*
%TO.P,MSP430FR1,26,P4.0/UCA1STE/ISOTXD/ISORXD*%
%TO.N,unconnected-(MSP430FR1-P4.0{slash}UCA1STE{slash}ISOTXD{slash}ISORXD-Pad26)*%
X80402500Y-92500000D03*
%TO.P,MSP430FR1,27,P2.3/TB1TRG*%
%TO.N,/P2.3*%
X80402500Y-92000000D03*
%TO.P,MSP430FR1,28,P2.2/TB1CLK*%
%TO.N,/P2.2*%
X80402500Y-91500000D03*
%TO.P,MSP430FR1,29,P2.1/TB1.2/COMP1.O*%
%TO.N,/P2.1*%
X80402500Y-91000000D03*
%TO.P,MSP430FR1,30,P2.0/TB1.1/COMP0.O*%
%TO.N,/P2.0*%
X80402500Y-90500000D03*
%TO.P,MSP430FR1,31,P1.7/UCA0TXD/UCA0SIMO/TB0.2/TDO/A7/VREF+*%
%TO.N,/P1.7*%
X80402500Y-90000000D03*
%TO.P,MSP430FR1,32,P1.6/UCA0RXD/UCA0SOMI/TB0.1/TDI/TCLK/A6*%
%TO.N,/P1.6*%
X80402500Y-89500000D03*
%TO.P,MSP430FR1,33,P1.5/UCA0CLK/TMS/A5*%
%TO.N,/P1.5*%
X80402500Y-89000000D03*
%TO.P,MSP430FR1,34,P1.4/UCA0STE/TCK/A4*%
%TO.N,/P1.4*%
X80402500Y-88500000D03*
%TO.P,MSP430FR1,35,P3.7*%
%TO.N,/P3.7*%
X80402500Y-88000000D03*
%TO.P,MSP430FR1,36,P3.6*%
%TO.N,/P3.6*%
X80402500Y-87500000D03*
D11*
%TO.P,MSP430FR1,37,P3.5*%
%TO.N,/P3.5*%
X78990000Y-86087500D03*
%TO.P,MSP430FR1,38,P3.4/SMCLK*%
%TO.N,/P3.4*%
X78490000Y-86087500D03*
%TO.P,MSP430FR1,39,P5.4*%
%TO.N,unconnected-(MSP430FR1-P5.4-Pad39)*%
X77990000Y-86087500D03*
%TO.P,MSP430FR1,40,P5.3/TB2TRG/A11*%
%TO.N,unconnected-(MSP430FR1-P5.3{slash}TB2TRG{slash}A11-Pad40)*%
X77490000Y-86087500D03*
%TO.P,MSP430FR1,41,P5.2/TB2CLK/A10*%
%TO.N,unconnected-(MSP430FR1-P5.2{slash}TB2CLK{slash}A10-Pad41)*%
X76990000Y-86087500D03*
%TO.P,MSP430FR1,42,P5.1/TB2.2/MFM.TX/A9*%
%TO.N,unconnected-(MSP430FR1-P5.1{slash}TB2.2{slash}MFM.TX{slash}A9-Pad42)*%
X76490000Y-86087500D03*
%TO.P,MSP430FR1,43,P5.0/TB2.1/MFM.RX/A8*%
%TO.N,unconnected-(MSP430FR1-P5.0{slash}TB2.1{slash}MFM.RX{slash}A8-Pad43)*%
X75990000Y-86087500D03*
%TO.P,MSP430FR1,44,P3.3*%
%TO.N,/P3.3*%
X75490000Y-86087500D03*
%TO.P,MSP430FR1,45,P3.2*%
%TO.N,/P3.2*%
X74990000Y-86087500D03*
%TO.P,MSP430FR1,46,P3.1*%
%TO.N,/P3.1*%
X74490000Y-86087500D03*
%TO.P,MSP430FR1,47,P3.0/MCLK*%
%TO.N,/P3.0*%
X73990000Y-86087500D03*
%TO.P,MSP430FR1,48,1.3/UCB0SOMI/UCB0SCL/A3*%
%TO.N,/P1.3*%
X73490000Y-86087500D03*
%TD*%
D12*
%TO.P,F#_4,1,1*%
%TO.N,/3v3*%
X79250000Y-105000000D03*
X85750000Y-105000000D03*
%TO.P,F#_4,2,2*%
%TO.N,/P3.2*%
X79250000Y-109500000D03*
X85750000Y-109500000D03*
%TD*%
D13*
%TO.P,C_Sin1,1*%
%TO.N,/Sine_Analog*%
X121145000Y-77470000D03*
%TO.P,C_Sin1,2*%
%TO.N,/GND*%
X116145000Y-77470000D03*
%TD*%
D12*
%TO.P,D_3,1,1*%
%TO.N,/3v3*%
X49250000Y-140250000D03*
X55750000Y-140250000D03*
%TO.P,D_3,2,2*%
%TO.N,/P1.2*%
X49250000Y-144750000D03*
X55750000Y-144750000D03*
%TD*%
D14*
%TO.P,3v3,1*%
%TO.N,/3v3*%
X116840000Y-101854000D03*
%TD*%
D13*
%TO.P,R3,1*%
%TO.N,/Sine_Isolated*%
X42700000Y-78240000D03*
D15*
%TO.P,R3,2*%
%TO.N,/Sine_Divided*%
X42700000Y-75700000D03*
%TD*%
D16*
%TO.P,U2,1,BIAS*%
%TO.N,unconnected-(U2A-BIAS-Pad1)*%
X62230000Y-85725000D03*
D15*
%TO.P,U2,2*%
%TO.N,/Audio_Out*%
X59690000Y-85725000D03*
%TO.P,U2,3,GND*%
%TO.N,/GND*%
X57150000Y-85725000D03*
%TO.P,U2,4,GND*%
X54610000Y-85725000D03*
%TO.P,U2,5,GND*%
X52070000Y-85725000D03*
%TO.P,U2,6,+*%
%TO.N,/Mixed*%
X49530000Y-85725000D03*
%TO.P,U2,7,-*%
%TO.N,Net-(U2A--)*%
X46990000Y-85725000D03*
%TO.P,U2,8,-*%
%TO.N,unconnected-(U2B---Pad8)*%
X46990000Y-93345000D03*
%TO.P,U2,9,+*%
%TO.N,unconnected-(U2B-+-Pad9)*%
X49530000Y-93345000D03*
%TO.P,U2,10,GND*%
%TO.N,/GND*%
X52070000Y-93345000D03*
%TO.P,U2,11,GND*%
X54610000Y-93345000D03*
%TO.P,U2,12,GND*%
X57150000Y-93345000D03*
%TO.P,U2,13*%
%TO.N,unconnected-(U2-Pad13)*%
X59690000Y-93345000D03*
%TO.P,U2,14,V+*%
%TO.N,/9v*%
X62230000Y-93345000D03*
%TD*%
D12*
%TO.P,A#_4,1,1*%
%TO.N,/3v3*%
X104250000Y-105250000D03*
X110750000Y-105250000D03*
%TO.P,A#_4,2,2*%
%TO.N,/P3.6*%
X104250000Y-109750000D03*
X110750000Y-109750000D03*
%TD*%
%TO.P,C_4,1,1*%
%TO.N,/3v3*%
X36750000Y-114500000D03*
X43250000Y-114500000D03*
%TO.P,C_4,2,2*%
%TO.N,/P2.4*%
X36750000Y-119000000D03*
X43250000Y-119000000D03*
%TD*%
%TO.P,E_4,1,1*%
%TO.N,/3v3*%
X61500000Y-114500000D03*
X68000000Y-114500000D03*
%TO.P,E_4,2,2*%
%TO.N,/P3.0*%
X61500000Y-119000000D03*
X68000000Y-119000000D03*
%TD*%
D13*
%TO.P,R2,1*%
%TO.N,/Square_Isolated*%
X91000000Y-78045000D03*
D15*
%TO.P,R2,2*%
%TO.N,/Square_Divided*%
X91000000Y-75505000D03*
%TD*%
D13*
%TO.P,40,1*%
%TO.N,unconnected-(MSP430FR1-P5.3{slash}TB2TRG{slash}A11-Pad40)*%
X65532000Y-85852000D03*
%TD*%
%TO.P,20,1*%
%TO.N,unconnected-(MSP430FR1-P6.2{slash}TB3.3-Pad20)*%
X66600000Y-105156000D03*
%TD*%
D17*
%TO.P,R_Sine_Mix1,*%
%TO.N,*%
X42800000Y-65800000D03*
X52400000Y-65800000D03*
D18*
%TO.P,R_Sine_Mix1,1,1*%
%TO.N,/Sine_Divided*%
X45100000Y-73300000D03*
D19*
%TO.P,R_Sine_Mix1,2,2*%
%TO.N,/Mixed*%
X47600000Y-73300000D03*
%TO.P,R_Sine_Mix1,3,3*%
%TO.N,/GND*%
X50100000Y-73300000D03*
%TD*%
D13*
%TO.P,GND,1*%
%TO.N,/GND*%
X109982000Y-94742000D03*
%TD*%
%TO.P,GND,1*%
%TO.N,/GND*%
X113538000Y-97536000D03*
%TD*%
%TO.P,GND,1*%
%TO.N,/GND*%
X106426000Y-97536000D03*
%TD*%
%TO.P,24,1*%
%TO.N,/UART_MSP_RX*%
X72136000Y-109220000D03*
%TD*%
%TO.P,R7,1*%
%TO.N,/Sawtooth_Isolated*%
X58825000Y-78330000D03*
D15*
%TO.P,R7,2*%
%TO.N,/Sawtooth_Divided*%
X58825000Y-75790000D03*
%TD*%
D13*
%TO.P,18,1*%
%TO.N,unconnected-(MSP430FR1-P6.4{slash}TB3.5-Pad18)*%
X66600000Y-96012000D03*
%TD*%
%TO.P,GND,1*%
%TO.N,/GND*%
X109982000Y-97536000D03*
%TD*%
D14*
%TO.P,3v3,1*%
%TO.N,/3v3*%
X116840000Y-104648000D03*
%TD*%
D16*
%TO.P,U3,1*%
%TO.N,/Sawtooth_Isolated*%
X96920000Y-90020000D03*
D15*
%TO.P,U3,2,-*%
X99460000Y-90020000D03*
%TO.P,U3,3,+*%
%TO.N,/Sawtooth_Analog*%
X102000000Y-90020000D03*
%TO.P,U3,4,V+*%
%TO.N,/3v3*%
X104540000Y-90020000D03*
%TO.P,U3,5,+*%
%TO.N,/Triangle_Analog*%
X107080000Y-90020000D03*
%TO.P,U3,6,-*%
%TO.N,/Triangle_Isolated*%
X109620000Y-90020000D03*
%TO.P,U3,7*%
X112160000Y-90020000D03*
%TO.P,U3,8*%
%TO.N,/Square_Isolated*%
X112160000Y-82400000D03*
%TO.P,U3,9,-*%
X109620000Y-82400000D03*
%TO.P,U3,10,+*%
%TO.N,/Square_Analog*%
X107080000Y-82400000D03*
%TO.P,U3,11,V-*%
%TO.N,/GND*%
X104540000Y-82400000D03*
%TO.P,U3,12,+*%
%TO.N,/Sine_Analog*%
X102000000Y-82400000D03*
%TO.P,U3,13,-*%
%TO.N,/Sine_Isolated*%
X99460000Y-82400000D03*
%TO.P,U3,14*%
X96920000Y-82400000D03*
%TD*%
D12*
%TO.P,F#_3,1,1*%
%TO.N,/3v3*%
X79500000Y-130000000D03*
X86000000Y-130000000D03*
%TO.P,F#_3,2,2*%
%TO.N,/P1.6*%
X79500000Y-134500000D03*
X86000000Y-134500000D03*
%TD*%
D13*
%TO.P,16,1*%
%TO.N,unconnected-(MSP430FR1-P6.6{slash}TB3CLK-Pad16)*%
X71628000Y-99060000D03*
%TD*%
%TO.P,NC,1*%
%TO.N,N/C*%
X99822000Y-94488000D03*
%TD*%
%TO.P,41,1*%
%TO.N,unconnected-(MSP430FR1-P5.2{slash}TB2CLK{slash}A10-Pad41)*%
X70104000Y-81788000D03*
%TD*%
%TO.P,43,1*%
%TO.N,unconnected-(MSP430FR1-P5.0{slash}TB2.1{slash}MFM.RX{slash}A8-Pad43)*%
X64008000Y-81788000D03*
%TD*%
D12*
%TO.P,A_3,1,1*%
%TO.N,/3v3*%
X97250000Y-140500000D03*
X103750000Y-140500000D03*
%TO.P,A_3,2,2*%
%TO.N,/P2.1*%
X97250000Y-145000000D03*
X103750000Y-145000000D03*
%TD*%
D13*
%TO.P,C_Saw1,1*%
%TO.N,/Sawtooth_Analog*%
X121245000Y-60325000D03*
%TO.P,C_Saw1,2*%
%TO.N,/GND*%
X116245000Y-60325000D03*
%TD*%
%TO.P,R_Sq1,1*%
%TO.N,/Square_PWM*%
X108985000Y-72395000D03*
D15*
%TO.P,R_Sq1,2*%
%TO.N,/Square_Analog*%
X106445000Y-72395000D03*
%TD*%
D12*
%TO.P,B_3,1,1*%
%TO.N,/3v3*%
X109750000Y-140500000D03*
X116250000Y-140500000D03*
%TO.P,B_3,2,2*%
%TO.N,/P2.3*%
X109750000Y-145000000D03*
X116250000Y-145000000D03*
%TD*%
D17*
%TO.P,R_Triangle_Mix1,*%
%TO.N,*%
X75000000Y-65725000D03*
X84600000Y-65725000D03*
D18*
%TO.P,R_Triangle_Mix1,1,1*%
%TO.N,/Triangle_Divided*%
X77300000Y-73225000D03*
D19*
%TO.P,R_Triangle_Mix1,2,2*%
%TO.N,/Mixed*%
X79800000Y-73225000D03*
%TO.P,R_Triangle_Mix1,3,3*%
%TO.N,/GND*%
X82300000Y-73225000D03*
%TD*%
D12*
%TO.P,G#_3,1,1*%
%TO.N,/3v3*%
X91750000Y-130000000D03*
X98250000Y-130000000D03*
%TO.P,G#_3,2,2*%
%TO.N,/P2.0*%
X91750000Y-134500000D03*
X98250000Y-134500000D03*
%TD*%
%TO.P,A_4,1,1*%
%TO.N,/3v3*%
X97750000Y-114750000D03*
X104250000Y-114750000D03*
%TO.P,A_4,2,2*%
%TO.N,/P3.5*%
X97750000Y-119250000D03*
X104250000Y-119250000D03*
%TD*%
%TO.P,G_3,1,1*%
%TO.N,/3v3*%
X85250000Y-140500000D03*
X91750000Y-140500000D03*
%TO.P,G_3,2,2*%
%TO.N,/P1.7*%
X85250000Y-145000000D03*
X91750000Y-145000000D03*
%TD*%
D13*
%TO.P,4,1*%
%TO.N,unconnected-(MSP430FR1-TEST{slash}SBWTCK-Pad4)*%
X83820000Y-93980000D03*
%TD*%
D12*
%TO.P,F_3,1,1*%
%TO.N,/3v3*%
X73500000Y-140500000D03*
X80000000Y-140500000D03*
%TO.P,F_3,2,2*%
%TO.N,/P1.5*%
X73500000Y-145000000D03*
X80000000Y-145000000D03*
%TD*%
D20*
%TO.P,GND,1*%
%TO.N,/Audio_Out*%
X30700000Y-65900000D03*
%TD*%
D13*
%TO.P,GND,1*%
%TO.N,/GND*%
X106426000Y-94742000D03*
%TD*%
%TO.P,NC,1*%
%TO.N,N/C*%
X96774000Y-94488000D03*
%TD*%
D12*
%TO.P,D#_4,1,1*%
%TO.N,/3v3*%
X55500000Y-105000000D03*
X62000000Y-105000000D03*
%TO.P,D#_4,2,2*%
%TO.N,/P2.7*%
X55500000Y-109500000D03*
X62000000Y-109500000D03*
%TD*%
%TO.P,E_3,1,1*%
%TO.N,/3v3*%
X61750000Y-140250000D03*
X68250000Y-140250000D03*
%TO.P,E_3,2,2*%
%TO.N,/P1.4*%
X61750000Y-144750000D03*
X68250000Y-144750000D03*
%TD*%
D13*
%TO.P,19,1*%
%TO.N,unconnected-(MSP430FR1-P6.3{slash}TB3.4-Pad19)*%
X66600000Y-100076000D03*
%TD*%
D14*
%TO.P,3v3,1*%
%TO.N,/3v3*%
X119888000Y-104648000D03*
%TD*%
D13*
%TO.P,23,1*%
%TO.N,/UART_MSP_TX*%
X70612000Y-105156000D03*
%TD*%
%TO.P,26,1*%
%TO.N,unconnected-(MSP430FR1-P4.0{slash}UCA1STE{slash}ISOTXD{slash}ISORXD-Pad26)*%
X74930000Y-109220000D03*
%TD*%
%TO.P,R8,1*%
%TO.N,/Sawtooth_Divided*%
X55700000Y-75745000D03*
D15*
%TO.P,R8,2*%
%TO.N,/GND*%
X55700000Y-73205000D03*
%TD*%
D13*
%TO.P,R_Saw1,1*%
%TO.N,/Sawtooth_PWM*%
X117700000Y-64770000D03*
D15*
%TO.P,R_Saw1,2*%
%TO.N,/Sawtooth_Analog*%
X120240000Y-64770000D03*
%TD*%
D13*
%TO.P,R_Sin1,1*%
%TO.N,/Sine_PWM*%
X117600000Y-72400000D03*
D15*
%TO.P,R_Sin1,2*%
%TO.N,/Sine_Analog*%
X120140000Y-72400000D03*
%TD*%
D13*
%TO.P,R1,1*%
%TO.N,/Square_Divided*%
X87800000Y-75540000D03*
D15*
%TO.P,R1,2*%
%TO.N,/GND*%
X87800000Y-73000000D03*
%TD*%
D13*
%TO.P,R_T1,1*%
%TO.N,/Triangle_PWM*%
X108645000Y-64770000D03*
D15*
%TO.P,R_T1,2*%
%TO.N,/Triangle_Analog*%
X106105000Y-64770000D03*
%TD*%
D12*
%TO.P,G_4,1,1*%
%TO.N,/3v3*%
X86000000Y-114500000D03*
X92500000Y-114500000D03*
%TO.P,G_4,2,2*%
%TO.N,/P3.3*%
X86000000Y-119000000D03*
X92500000Y-119000000D03*
%TD*%
D13*
%TO.P,C_T1,1*%
%TO.N,/Triangle_Analog*%
X105100000Y-60325000D03*
%TO.P,C_T1,2*%
%TO.N,/GND*%
X110100000Y-60325000D03*
%TD*%
%TO.P,R6,1*%
%TO.N,/Triangle_Divided*%
X71700000Y-75565000D03*
D15*
%TO.P,R6,2*%
%TO.N,/GND*%
X71700000Y-73025000D03*
%TD*%
D13*
%TO.P,42,1*%
%TO.N,unconnected-(MSP430FR1-P5.1{slash}TB2.2{slash}MFM.TX{slash}A9-Pad42)*%
X67056000Y-81788000D03*
%TD*%
D12*
%TO.P,G#_4,1,1*%
%TO.N,/3v3*%
X92000000Y-105000000D03*
X98500000Y-105000000D03*
%TO.P,G#_4,2,2*%
%TO.N,/P3.4*%
X92000000Y-109500000D03*
X98500000Y-109500000D03*
%TD*%
%TO.P,D#_3,1,1*%
%TO.N,/3v3*%
X56000000Y-130000000D03*
X62500000Y-130000000D03*
%TO.P,D#_3,2,2*%
%TO.N,/P1.3*%
X56000000Y-134500000D03*
X62500000Y-134500000D03*
%TD*%
D17*
%TO.P,R_Volume1,*%
%TO.N,*%
X29800000Y-82425000D03*
X39400000Y-82425000D03*
D18*
%TO.P,R_Volume1,1,1*%
%TO.N,Net-(U2A--)*%
X32100000Y-89925000D03*
D19*
%TO.P,R_Volume1,2,2*%
%TO.N,/Audio_Out*%
X34600000Y-89925000D03*
%TO.P,R_Volume1,3,3*%
%TO.N,unconnected-(R_Volume1-Pad3)*%
X37100000Y-89925000D03*
%TD*%
D13*
%TO.P,R4,1*%
%TO.N,/Sine_Divided*%
X39500000Y-75640000D03*
D15*
%TO.P,R4,2*%
%TO.N,/GND*%
X39500000Y-73100000D03*
%TD*%
D21*
%TO.P,Audio Out,1*%
%TO.N,/Audio_Out*%
X30700000Y-70500000D03*
%TD*%
D20*
%TO.P,GND,1*%
%TO.N,/GND*%
X30400000Y-93300000D03*
%TD*%
D12*
%TO.P,C#_3,1,1*%
%TO.N,/3v3*%
X43500000Y-130000000D03*
X50000000Y-130000000D03*
%TO.P,C#_3,2,2*%
%TO.N,/P1.1*%
X43500000Y-134500000D03*
X50000000Y-134500000D03*
%TD*%
D17*
%TO.P,P_Square_Mix1,*%
%TO.N,*%
X91100000Y-65700000D03*
X100700000Y-65700000D03*
D18*
%TO.P,P_Square_Mix1,1,1*%
%TO.N,/Square_Divided*%
X93400000Y-73200000D03*
D19*
%TO.P,P_Square_Mix1,2,2*%
%TO.N,/Mixed*%
X95900000Y-73200000D03*
%TO.P,P_Square_Mix1,3,3*%
%TO.N,/GND*%
X98400000Y-73200000D03*
%TD*%
D12*
%TO.P,A#_3,1,1*%
%TO.N,/3v3*%
X103750000Y-130250000D03*
X110250000Y-130250000D03*
%TO.P,A#_3,2,2*%
%TO.N,/P2.2*%
X103750000Y-134750000D03*
X110250000Y-134750000D03*
%TD*%
%TO.P,B_4,1,1*%
%TO.N,/3v3*%
X110000000Y-114750000D03*
X116500000Y-114750000D03*
%TO.P,B_4,2,2*%
%TO.N,/P3.7*%
X110000000Y-119250000D03*
X116500000Y-119250000D03*
%TD*%
D14*
%TO.P,3v3,1*%
%TO.N,/3v3*%
X119888000Y-101854000D03*
%TD*%
D17*
%TO.P,R_Sawtooth_Mix1,*%
%TO.N,*%
X58900000Y-65925000D03*
X68500000Y-65925000D03*
D18*
%TO.P,R_Sawtooth_Mix1,1,1*%
%TO.N,/Sawtooth_Divided*%
X61200000Y-73425000D03*
D19*
%TO.P,R_Sawtooth_Mix1,2,2*%
%TO.N,/Mixed*%
X63700000Y-73425000D03*
%TO.P,R_Sawtooth_Mix1,3,3*%
%TO.N,/GND*%
X66200000Y-73425000D03*
%TD*%
D12*
%TO.P,C_3,1,1*%
%TO.N,/3v3*%
X36750000Y-140250000D03*
X43250000Y-140250000D03*
%TO.P,C_3,2,2*%
%TO.N,/P1.0*%
X36750000Y-144750000D03*
X43250000Y-144750000D03*
%TD*%
%TO.P,D_4,1,1*%
%TO.N,/3v3*%
X49250000Y-114500000D03*
X55750000Y-114500000D03*
%TO.P,D_4,2,2*%
%TO.N,/P2.6*%
X49250000Y-119000000D03*
X55750000Y-119000000D03*
%TD*%
D13*
%TO.P,GND,1*%
%TO.N,/GND*%
X113538000Y-94742000D03*
%TD*%
D21*
%TO.P,3.3v,1*%
%TO.N,/3v3*%
X30500000Y-107000000D03*
%TD*%
D13*
%TO.P,R9,1*%
%TO.N,Net-(U2A--)*%
X33060000Y-74600000D03*
D15*
%TO.P,R9,2*%
%TO.N,/GND*%
X35600000Y-74600000D03*
%TD*%
D13*
%TO.P,22,1*%
%TO.N,unconnected-(MSP430FR1-P6.0{slash}TB3.1-Pad22)*%
X69342000Y-109220000D03*
%TD*%
%TO.P,5,1*%
%TO.N,unconnected-(MSP430FR1-RST{slash}NMI{slash}SBWTDIO-Pad5)*%
X80772000Y-94996000D03*
%TD*%
%TO.P,C_Sq1,1*%
%TO.N,/Square_Analog*%
X105490000Y-77470000D03*
%TO.P,C_Sq1,2*%
%TO.N,/GND*%
X110490000Y-77470000D03*
%TD*%
D12*
%TO.P,C#_4,1,1*%
%TO.N,/3v3*%
X43250000Y-105000000D03*
X49750000Y-105000000D03*
%TO.P,C#_4,2,2*%
%TO.N,/P2.5*%
X43250000Y-109500000D03*
X49750000Y-109500000D03*
%TD*%
D13*
%TO.P,25,1*%
%TO.N,unconnected-(MSP430FR1-P4.1{slash}UCA1CLK-Pad25)*%
X73660000Y-105156000D03*
%TD*%
%TO.P,39,1*%
%TO.N,unconnected-(MSP430FR1-P5.4-Pad39)*%
X68580000Y-85852000D03*
%TD*%
D12*
%TO.P,F_4,1,1*%
%TO.N,/3v3*%
X74000000Y-114500000D03*
X80500000Y-114500000D03*
%TO.P,F_4,2,2*%
%TO.N,/P3.1*%
X74000000Y-119000000D03*
X80500000Y-119000000D03*
%TD*%
D13*
%TO.P,R5,1*%
%TO.N,/Triangle_Isolated*%
X74900000Y-78165000D03*
D15*
%TO.P,R5,2*%
%TO.N,/Triangle_Divided*%
X74900000Y-75625000D03*
%TD*%
D21*
%TO.P,9v,1*%
%TO.N,/9v*%
X30400000Y-97800000D03*
%TD*%
D13*
%TO.P,17,1*%
%TO.N,unconnected-(MSP430FR1-P6.5{slash}TB3.6-Pad17)*%
X69596000Y-96012000D03*
%TD*%
%TO.P,21,1*%
%TO.N,unconnected-(MSP430FR1-P6.1{slash}TB3.2-Pad21)*%
X66600000Y-109220000D03*
%TD*%
%TO.P,NC,1*%
%TO.N,N/C*%
X96774000Y-97282000D03*
%TD*%
%TO.P,NC,1*%
%TO.N,N/C*%
X99822000Y-97282000D03*
%TD*%
D22*
%TO.N,/3v3*%
X62900500Y-100300500D03*
X104540000Y-101200000D03*
%TO.N,/P3.6*%
X122075500Y-92500150D03*
X121875837Y-88825500D03*
%TO.N,/P3.5*%
X120898330Y-88375500D03*
X121000000Y-92400000D03*
%TO.N,/P2.3*%
X89009374Y-92148961D03*
X86999403Y-91450500D03*
%TO.N,/P3.7*%
X122833107Y-93166893D03*
X122810632Y-89306794D03*
%TO.N,/P1.1*%
X69559571Y-89275500D03*
%TO.N,/P2.5*%
X69600000Y-93692698D03*
X40800000Y-102000000D03*
%TO.N,/P1.0*%
X70400000Y-88734500D03*
%TO.N,/P2.4*%
X70400000Y-92800000D03*
X40075500Y-101293245D03*
%TO.N,/P1.3*%
X68623916Y-88924000D03*
%TO.N,/P1.2*%
X32251000Y-102200000D03*
X72644000Y-85852000D03*
%TO.N,/P1.4*%
X86000000Y-88000000D03*
X32975500Y-101461874D03*
%TO.N,/P3.0*%
X89875500Y-92647792D03*
X89600000Y-82125500D03*
%TO.N,/P1.6*%
X38626500Y-99837701D03*
X87736683Y-89275500D03*
%TO.N,/P3.2*%
X91324500Y-92200000D03*
X91400000Y-83075500D03*
%TO.N,/P1.5*%
X87000000Y-88600000D03*
X37902000Y-99081665D03*
%TO.N,/P3.1*%
X90817700Y-93250500D03*
X90800000Y-82200000D03*
%TO.N,/P2.0*%
X39351000Y-100562201D03*
X85400000Y-91000000D03*
%TO.N,/P3.4*%
X119870149Y-92245096D03*
X120058158Y-87834098D03*
%TO.N,/P3.3*%
X92187701Y-93012299D03*
X92200000Y-83800000D03*
%TO.N,unconnected-(MSP430FR1-TEST{slash}SBWTCK-Pad4)*%
X74676000Y-92964000D03*
%TO.N,/GND*%
X111760000Y-66040000D03*
X122200000Y-86000000D03*
X112395000Y-71120000D03*
X63625500Y-95974500D03*
X117000000Y-83000000D03*
%TO.N,unconnected-(MSP430FR1-RST{slash}NMI{slash}SBWTDIO-Pad5)*%
X73660000Y-92964000D03*
%TO.N,/Square_PWM*%
X70716070Y-93748211D03*
%TO.N,/Triangle_PWM*%
X73265500Y-96055000D03*
%TO.N,/Sawtooth_PWM*%
X73024500Y-97025012D03*
%TO.N,/Sine_PWM*%
X73913065Y-97694500D03*
%TO.N,unconnected-(MSP430FR1-P5.4-Pad39)*%
X85344000Y-85185500D03*
%TO.N,unconnected-(MSP430FR1-P5.3{slash}TB2TRG{slash}A11-Pad40)*%
X84328000Y-84735500D03*
%TO.N,unconnected-(MSP430FR1-P5.2{slash}TB2CLK{slash}A10-Pad41)*%
X83510755Y-84018755D03*
%TO.N,unconnected-(MSP430FR1-P5.1{slash}TB2.2{slash}MFM.TX{slash}A9-Pad42)*%
X82804000Y-83312000D03*
%TO.N,unconnected-(MSP430FR1-P5.0{slash}TB2.1{slash}MFM.RX{slash}A8-Pad43)*%
X82296000Y-82410500D03*
%TO.N,/Sawtooth_Isolated*%
X100000000Y-80600000D03*
%TO.N,/Triangle_Isolated*%
X103000000Y-84000000D03*
%TD*%
D23*
%TO.N,/3v3*%
X62900500Y-95263104D02*
X62900500Y-95686847D01*
X68163604Y-90000000D02*
X62900500Y-95263104D01*
X104540000Y-90020000D02*
X104540000Y-101200000D01*
X72077500Y-90000000D02*
X68163604Y-90000000D01*
X62900500Y-100300500D02*
X62900500Y-95674195D01*
%TO.N,/P2.2*%
X121450000Y-134750000D02*
X110250000Y-134750000D01*
X91996676Y-87950000D02*
X115240812Y-87950000D01*
X123650000Y-92959188D02*
X123650000Y-132550000D01*
X82500000Y-91500000D02*
X83175000Y-92175000D01*
X115240812Y-87950000D02*
X118690812Y-91400000D01*
X87771676Y-92175000D02*
X91996676Y-87950000D01*
X122090812Y-91400000D02*
X123650000Y-92959188D01*
X87425000Y-92175000D02*
X87771676Y-92175000D01*
X80330000Y-91500000D02*
X82500000Y-91500000D01*
X83175000Y-92175000D02*
X87425000Y-92175000D01*
X123650000Y-132550000D02*
X121450000Y-134750000D01*
X118690812Y-91400000D02*
X122090812Y-91400000D01*
%TO.N,/P3.6*%
X121875837Y-88825500D02*
X121623330Y-88572993D01*
X83707145Y-87560000D02*
X81265685Y-87560000D01*
X122075500Y-93434591D02*
X122750000Y-94109091D01*
X122750000Y-107086396D02*
X121386396Y-108450000D01*
X81205685Y-87500000D02*
X80330000Y-87500000D01*
X121623330Y-88572993D02*
X121623330Y-88675805D01*
X122075500Y-92500150D02*
X122075500Y-93434591D01*
X116262359Y-85700000D02*
X88072884Y-85700000D01*
X84442145Y-86825000D02*
X83707145Y-87560000D01*
X88072884Y-85700000D02*
X86947884Y-86825000D01*
X121623330Y-88675805D02*
X121198635Y-89100500D01*
X121386396Y-108450000D02*
X112050000Y-108450000D01*
X119662859Y-89100500D02*
X116262359Y-85700000D01*
X122750000Y-94109091D02*
X122750000Y-107086396D01*
X81265685Y-87560000D02*
X81205685Y-87500000D01*
X121198635Y-89100500D02*
X119662859Y-89100500D01*
X86947884Y-86825000D02*
X84442145Y-86825000D01*
X112050000Y-108450000D02*
X110750000Y-109750000D01*
%TO.N,/P2.1*%
X124550000Y-143650000D02*
X124550000Y-92586396D01*
X107150000Y-148400000D02*
X119800000Y-148400000D01*
X119800000Y-148400000D02*
X124550000Y-143650000D01*
X84384695Y-91010000D02*
X80330000Y-91010000D01*
X88183231Y-90490653D02*
X86933945Y-90490653D01*
X91623884Y-87050000D02*
X88183231Y-90490653D01*
X115613604Y-87050000D02*
X91623884Y-87050000D01*
X85099695Y-91725000D02*
X84384695Y-91010000D01*
X103750000Y-145000000D02*
X107150000Y-148400000D01*
X85699598Y-91725000D02*
X85099695Y-91725000D01*
X124550000Y-92586396D02*
X122414104Y-90450500D01*
X86933945Y-90490653D02*
X85699598Y-91725000D01*
X122414104Y-90450500D02*
X119014104Y-90450500D01*
X119014104Y-90450500D02*
X115613604Y-87050000D01*
%TO.N,/P3.5*%
X121200000Y-108000000D02*
X109800000Y-108000000D01*
X120714732Y-88559098D02*
X119757853Y-88559098D01*
X122300000Y-106900000D02*
X121200000Y-108000000D01*
X122300000Y-94295487D02*
X122300000Y-106900000D01*
X80264000Y-84836000D02*
X79400396Y-84836000D01*
X107200000Y-110600000D02*
X107200000Y-116300000D01*
X121000000Y-92400000D02*
X121000000Y-92995487D01*
X121000000Y-92995487D02*
X122300000Y-94295487D01*
X81788000Y-86360000D02*
X80264000Y-84836000D01*
X107200000Y-116300000D02*
X104250000Y-119250000D01*
X109800000Y-108000000D02*
X107200000Y-110600000D01*
X86776488Y-86360000D02*
X81788000Y-86360000D01*
X79000000Y-85236396D02*
X79000000Y-86160000D01*
X119757853Y-88559098D02*
X116448755Y-85250000D01*
X120898330Y-88375500D02*
X120714732Y-88559098D01*
X87886488Y-85250000D02*
X86776488Y-86360000D01*
X79400396Y-84836000D02*
X79000000Y-85236396D01*
X116448755Y-85250000D02*
X87886488Y-85250000D01*
%TO.N,/P2.3*%
X87859780Y-91450500D02*
X91810280Y-87500000D01*
X124100000Y-92772792D02*
X124100000Y-143300000D01*
X91810280Y-87500000D02*
X115427208Y-87500000D01*
X115427208Y-87500000D02*
X118827708Y-90900500D01*
X82988604Y-92625000D02*
X82373604Y-92010000D01*
X122400000Y-145000000D02*
X116250000Y-145000000D01*
X82373604Y-92010000D02*
X80330000Y-92010000D01*
X124100000Y-143300000D02*
X122400000Y-145000000D01*
X122227708Y-90900500D02*
X124100000Y-92772792D01*
X89009374Y-92148961D02*
X88533335Y-92625000D01*
X88533335Y-92625000D02*
X82988604Y-92625000D01*
X118827708Y-90900500D02*
X122227708Y-90900500D01*
X86999403Y-91450500D02*
X87859780Y-91450500D01*
%TO.N,/P3.7*%
X84628541Y-87275000D02*
X83893541Y-88010000D01*
X119476463Y-89550500D02*
X116075963Y-86150000D01*
X123200000Y-117800000D02*
X121750000Y-119250000D01*
X123200000Y-93533786D02*
X123200000Y-117800000D01*
X116075963Y-86150000D02*
X88259280Y-86150000D01*
X122810632Y-89306794D02*
X122566926Y-89550500D01*
X87134280Y-87275000D02*
X84628541Y-87275000D01*
X88259280Y-86150000D02*
X87134280Y-87275000D01*
X121750000Y-119250000D02*
X116500000Y-119250000D01*
X83893541Y-88010000D02*
X80330000Y-88010000D01*
X122566926Y-89550500D02*
X119476463Y-89550500D01*
X122833107Y-93166893D02*
X123200000Y-93533786D01*
%TO.N,/P1.1*%
X70099195Y-88010000D02*
X72150000Y-88010000D01*
X69559571Y-89275500D02*
X69559571Y-88549624D01*
X69559571Y-88549624D02*
X70099195Y-88010000D01*
%TO.N,/P2.5*%
X40800000Y-102000000D02*
X40800000Y-107000000D01*
X70164695Y-92010000D02*
X72150000Y-92010000D01*
X69600000Y-92574695D02*
X70164695Y-92010000D01*
X40800000Y-107000000D02*
X43250000Y-109450000D01*
X69600000Y-93692698D02*
X69600000Y-92574695D01*
X43250000Y-109450000D02*
X43250000Y-109500000D01*
%TO.N,/P1.0*%
X70634500Y-88500000D02*
X72150000Y-88500000D01*
X70400000Y-88734500D02*
X70634500Y-88500000D01*
%TO.N,/P2.4*%
X37229450Y-101293245D02*
X35000000Y-103522695D01*
X70690000Y-92510000D02*
X72150000Y-92510000D01*
X35000000Y-117250000D02*
X36750000Y-119000000D01*
X70400000Y-92800000D02*
X70690000Y-92510000D01*
X35000000Y-103522695D02*
X35000000Y-117250000D01*
X40075500Y-101293245D02*
X37229450Y-101293245D01*
%TO.N,/P1.3*%
X68403391Y-88924000D02*
X68623916Y-88924000D01*
X68623916Y-88924000D02*
X68623916Y-88791307D01*
X73200000Y-84600000D02*
X73490000Y-84890000D01*
X68623916Y-87711688D02*
X71735604Y-84600000D01*
X73490000Y-84890000D02*
X73490000Y-86160000D01*
X68623916Y-88791307D02*
X68580000Y-88747391D01*
X68388898Y-88909507D02*
X68403391Y-88924000D01*
X71735604Y-84600000D02*
X73200000Y-84600000D01*
X68623916Y-88924000D02*
X68623916Y-87711688D01*
%TO.N,/P2.7*%
X62000000Y-109500000D02*
X64350000Y-107150000D01*
X64350000Y-95086396D02*
X68426396Y-91010000D01*
X68426396Y-91010000D02*
X72150000Y-91010000D01*
X64350000Y-107150000D02*
X64350000Y-95086396D01*
%TO.N,/P1.2*%
X32700000Y-105548366D02*
X32525500Y-105373866D01*
X71244000Y-87500000D02*
X72077500Y-87500000D01*
X46200000Y-141700000D02*
X46200000Y-139000000D01*
X32525500Y-105373866D02*
X32525500Y-102474500D01*
X36200000Y-137600000D02*
X32700000Y-134100000D01*
X70612000Y-86360000D02*
X70612000Y-86868000D01*
X70612000Y-86868000D02*
X71244000Y-87500000D01*
X46200000Y-139000000D02*
X44800000Y-137600000D01*
X44800000Y-137600000D02*
X36200000Y-137600000D01*
X49250000Y-144750000D02*
X46200000Y-141700000D01*
X71120000Y-85852000D02*
X70612000Y-86360000D01*
X72644000Y-85852000D02*
X71120000Y-85852000D01*
X32700000Y-134100000D02*
X32700000Y-105548366D01*
X32525500Y-102474500D02*
X32251000Y-102200000D01*
%TO.N,/P2.6*%
X55750000Y-119000000D02*
X58150000Y-116600000D01*
X64800000Y-113400000D02*
X64800000Y-95272792D01*
X64800000Y-95272792D02*
X68562792Y-91510000D01*
X61600000Y-116600000D02*
X64800000Y-113400000D01*
X58150000Y-116600000D02*
X61600000Y-116600000D01*
X68562792Y-91510000D02*
X72150000Y-91510000D01*
%TO.N,/P1.4*%
X70800000Y-133036396D02*
X70800000Y-142200000D01*
X70800000Y-142200000D02*
X68250000Y-144750000D01*
X86000000Y-88000000D02*
X85500000Y-88500000D01*
X32975500Y-101461874D02*
X32975500Y-105187470D01*
X38200000Y-127000000D02*
X64763604Y-127000000D01*
X32975500Y-105187470D02*
X33150000Y-105361970D01*
X64763604Y-127000000D02*
X70800000Y-133036396D01*
X85500000Y-88500000D02*
X80330000Y-88500000D01*
X33150000Y-121950000D02*
X38200000Y-127000000D01*
X33150000Y-105361970D02*
X33150000Y-121950000D01*
%TO.N,/P3.0*%
X88873591Y-81788000D02*
X87421591Y-80336000D01*
X74997604Y-112326000D02*
X72457604Y-112326000D01*
X77536436Y-80336000D02*
X73980000Y-83892436D01*
X71000000Y-116000000D02*
X68000000Y-119000000D01*
X71000000Y-113783604D02*
X71000000Y-116000000D01*
X73980000Y-83892436D02*
X73980000Y-86160000D01*
X89262500Y-81788000D02*
X88873591Y-81788000D01*
X76316000Y-103404356D02*
X76316000Y-111007604D01*
X76316000Y-111007604D02*
X74997604Y-112326000D01*
X89600000Y-82125500D02*
X89262500Y-81788000D01*
X89448292Y-93075000D02*
X86645356Y-93075000D01*
X86645356Y-93075000D02*
X76316000Y-103404356D01*
X87421591Y-80336000D02*
X77536436Y-80336000D01*
X72457604Y-112326000D02*
X71000000Y-113783604D01*
X89875500Y-92647792D02*
X89448292Y-93075000D01*
%TO.N,/P1.6*%
X65036396Y-126000000D02*
X71436396Y-132400000D01*
X34100000Y-121627208D02*
X38472792Y-126000000D01*
X77400000Y-132400000D02*
X79500000Y-134500000D01*
X87736683Y-89275500D02*
X87502183Y-89510000D01*
X87502183Y-89510000D02*
X80330000Y-89510000D01*
X38472792Y-126000000D02*
X65036396Y-126000000D01*
X38626500Y-99837701D02*
X37412202Y-99837701D01*
X71436396Y-132400000D02*
X77400000Y-132400000D01*
X37412202Y-99837701D02*
X34100000Y-103149903D01*
X34100000Y-103149903D02*
X34100000Y-121627208D01*
%TO.N,/P3.2*%
X92400707Y-92200000D02*
X91324500Y-92200000D01*
X89113299Y-83300500D02*
X87048799Y-81236000D01*
X92912701Y-93312604D02*
X92912701Y-92711994D01*
X91175000Y-83300500D02*
X89113299Y-83300500D01*
X77909228Y-81236000D02*
X74990000Y-84155228D01*
X79250000Y-109500000D02*
X77724000Y-107974000D01*
X87204544Y-94425000D02*
X91800305Y-94425000D01*
X77724000Y-103905544D02*
X87204544Y-94425000D01*
X87048799Y-81236000D02*
X77909228Y-81236000D01*
X92912701Y-92711994D02*
X92400707Y-92200000D01*
X91400000Y-83075500D02*
X91175000Y-83300500D01*
X91800305Y-94425000D02*
X92912701Y-93312604D01*
X74990000Y-84155228D02*
X74990000Y-86160000D01*
X77724000Y-107974000D02*
X77724000Y-103905544D01*
%TO.N,/P1.5*%
X87000000Y-88600000D02*
X86600000Y-89000000D01*
X71250000Y-132850000D02*
X71250000Y-142750000D01*
X71250000Y-142750000D02*
X73500000Y-145000000D01*
X33600000Y-103000000D02*
X33600000Y-121763604D01*
X37902000Y-99081665D02*
X37518335Y-99081665D01*
X38386396Y-126550000D02*
X64950000Y-126550000D01*
X33600000Y-121763604D02*
X38386396Y-126550000D01*
X37518335Y-99081665D02*
X33600000Y-103000000D01*
X86600000Y-89000000D02*
X80330000Y-89000000D01*
X64950000Y-126550000D02*
X71250000Y-132850000D01*
%TO.N,/P3.1*%
X89299695Y-82850500D02*
X87235195Y-80786000D01*
X86831752Y-93525000D02*
X76766000Y-103590752D01*
X74490000Y-84018832D02*
X74490000Y-86160000D01*
X77722832Y-80786000D02*
X74490000Y-84018832D01*
X87235195Y-80786000D02*
X77722832Y-80786000D01*
X76766000Y-103590752D02*
X76766000Y-111194000D01*
X90543200Y-93525000D02*
X86831752Y-93525000D01*
X71450000Y-113970000D02*
X71450000Y-116450000D01*
X71450000Y-116450000D02*
X74000000Y-119000000D01*
X72644000Y-112776000D02*
X71450000Y-113970000D01*
X90817700Y-93250500D02*
X90543200Y-93525000D01*
X90149500Y-82850500D02*
X89299695Y-82850500D01*
X75184000Y-112776000D02*
X72644000Y-112776000D01*
X90800000Y-82200000D02*
X90149500Y-82850500D01*
X76766000Y-111194000D02*
X75184000Y-112776000D01*
%TO.N,/P2.0*%
X34550000Y-103336299D02*
X34550000Y-121440812D01*
X75065812Y-121865812D02*
X86000000Y-132800000D01*
X85400000Y-91000000D02*
X85200000Y-91000000D01*
X34975000Y-121865812D02*
X75065812Y-121865812D01*
X37324098Y-100562201D02*
X34550000Y-103336299D01*
X80330000Y-90510000D02*
X84710000Y-90510000D01*
X39351000Y-100562201D02*
X37324098Y-100562201D01*
X34550000Y-121440812D02*
X34975000Y-121865812D01*
X90050000Y-132800000D02*
X91750000Y-134500000D01*
X84710000Y-90510000D02*
X85400000Y-91000000D01*
X86000000Y-132800000D02*
X90050000Y-132800000D01*
%TO.N,/P3.4*%
X116804000Y-84800000D02*
X87700092Y-84800000D01*
X119870149Y-92502032D02*
X121850000Y-94481883D01*
X121013604Y-107550000D02*
X100450000Y-107550000D01*
X121850000Y-106713604D02*
X121013604Y-107550000D01*
X87700092Y-84800000D02*
X86590092Y-85910000D01*
X121850000Y-94481883D02*
X121850000Y-106713604D01*
X100450000Y-107550000D02*
X98500000Y-109500000D01*
X119870149Y-92245096D02*
X119870149Y-92502032D01*
X78500000Y-85100000D02*
X78500000Y-86160000D01*
X81974396Y-85910000D02*
X80450396Y-84386000D01*
X119838098Y-87834098D02*
X116804000Y-84800000D01*
X120058158Y-87834098D02*
X119838098Y-87834098D01*
X80450396Y-84386000D02*
X79214000Y-84386000D01*
X86590092Y-85910000D02*
X81974396Y-85910000D01*
X79214000Y-84386000D02*
X78500000Y-85100000D01*
%TO.N,/P1.7*%
X95750000Y-149000000D02*
X120000000Y-149000000D01*
X125000000Y-92400000D02*
X122600000Y-90000000D01*
X91400000Y-86637488D02*
X91400000Y-86600000D01*
X119200500Y-90000500D02*
X122600000Y-90000500D01*
X91400000Y-86600000D02*
X115800000Y-86600000D01*
X80340000Y-90000000D02*
X80330000Y-90010000D01*
X125000000Y-144000000D02*
X125000000Y-92400000D01*
X115800000Y-86600000D02*
X119200500Y-90000500D01*
X80402500Y-90000000D02*
X88037488Y-90000000D01*
X88037488Y-90000000D02*
X91400000Y-86637488D01*
X91750000Y-145000000D02*
X95750000Y-149000000D01*
X120000000Y-149000000D02*
X125000000Y-144000000D01*
%TO.N,/P3.3*%
X77216000Y-111760000D02*
X78232000Y-112776000D01*
X78095624Y-81686000D02*
X75500000Y-84281624D01*
X86862403Y-81686000D02*
X78095624Y-81686000D01*
X87018148Y-93975000D02*
X77216000Y-103777148D01*
X86000000Y-116480000D02*
X86000000Y-119000000D01*
X92200000Y-83800000D02*
X88976403Y-83800000D01*
X92187701Y-93012299D02*
X91225000Y-93975000D01*
X77216000Y-103777148D02*
X77216000Y-111760000D01*
X88976403Y-83800000D02*
X86862403Y-81686000D01*
X82296000Y-112776000D02*
X86000000Y-116480000D01*
X75500000Y-84281624D02*
X75500000Y-86160000D01*
X91225000Y-93975000D02*
X87018148Y-93975000D01*
X78232000Y-112776000D02*
X82296000Y-112776000D01*
%TO.N,unconnected-(MSP430FR1-TEST{slash}SBWTCK-Pad4)*%
X73252000Y-89000000D02*
X72077500Y-89000000D01*
X74115000Y-92375000D02*
X74115000Y-89863000D01*
X74676000Y-92936000D02*
X74115000Y-92375000D01*
X74676000Y-92964000D02*
X74676000Y-92936000D01*
X74115000Y-89863000D02*
X73252000Y-89000000D01*
%TO.N,/GND*%
X71030000Y-90500000D02*
X71040000Y-90510000D01*
X111760000Y-66040000D02*
X112395000Y-66675000D01*
X112395000Y-66675000D02*
X112395000Y-71120000D01*
X68700000Y-90500000D02*
X68800000Y-90500000D01*
X116145000Y-82345000D02*
X117000000Y-83000000D01*
X68800000Y-90500000D02*
X71030000Y-90500000D01*
X117000000Y-83000000D02*
X119200000Y-83000000D01*
X119200000Y-83000000D02*
X122200000Y-86000000D01*
X71040000Y-90510000D02*
X72150000Y-90510000D01*
X116145000Y-77470000D02*
X116145000Y-82345000D01*
X63625500Y-95974500D02*
X63625500Y-95174500D01*
X68300000Y-90500000D02*
X68800000Y-90500000D01*
X63625500Y-95174500D02*
X68300000Y-90500000D01*
X117000000Y-83000000D02*
X116800000Y-83000000D01*
%TO.N,unconnected-(MSP430FR1-RST{slash}NMI{slash}SBWTDIO-Pad5)*%
X73115604Y-89500000D02*
X73660000Y-90044396D01*
X73660000Y-90044396D02*
X73660000Y-92964000D01*
X72077500Y-89500000D02*
X73115604Y-89500000D01*
%TO.N,/Square_PWM*%
X71464281Y-93000000D02*
X72077500Y-93000000D01*
X70716070Y-93748211D02*
X71464281Y-93000000D01*
%TO.N,/Triangle_PWM*%
X73265500Y-96055000D02*
X73490000Y-95830500D01*
X73490000Y-95830500D02*
X73490000Y-94412500D01*
%TO.N,/Sawtooth_PWM*%
X73269512Y-96780000D02*
X73565805Y-96780000D01*
X73024500Y-97025012D02*
X73269512Y-96780000D01*
X73565805Y-96780000D02*
X73990000Y-96355805D01*
X73990000Y-96355805D02*
X73990000Y-94412500D01*
%TO.N,unconnected-(MSP430FR1-P6.6{slash}TB3CLK-Pad16)*%
X72136000Y-99060000D02*
X73660000Y-99060000D01*
X74990000Y-97730000D02*
X74990000Y-94412500D01*
X73660000Y-99060000D02*
X74990000Y-97730000D01*
%TO.N,unconnected-(MSP430FR1-P6.5{slash}TB3.6-Pad17)*%
X72772396Y-100584000D02*
X70358000Y-100584000D01*
X69600000Y-96016000D02*
X69596000Y-96012000D01*
X70358000Y-100584000D02*
X69600000Y-99826000D01*
X69600000Y-99826000D02*
X69600000Y-96016000D01*
X75490000Y-97866396D02*
X72772396Y-100584000D01*
X75490000Y-94412500D02*
X75490000Y-97866396D01*
%TO.N,unconnected-(MSP430FR1-P6.4{slash}TB3.5-Pad18)*%
X72958792Y-101034000D02*
X70171604Y-101034000D01*
X75990000Y-98002792D02*
X72958792Y-101034000D01*
X67056000Y-96012000D02*
X66600000Y-96012000D01*
X69150000Y-98106000D02*
X67056000Y-96012000D01*
X70171604Y-101034000D02*
X69150000Y-100012396D01*
X75990000Y-94412500D02*
X75990000Y-98002792D01*
X69150000Y-100012396D02*
X69150000Y-98106000D01*
%TO.N,unconnected-(MSP430FR1-P6.3{slash}TB3.4-Pad19)*%
X73145188Y-101484000D02*
X68008000Y-101484000D01*
X76490000Y-98139188D02*
X73145188Y-101484000D01*
X76490000Y-94412500D02*
X76490000Y-98139188D01*
X68008000Y-101484000D02*
X66600000Y-100076000D01*
%TO.N,unconnected-(MSP430FR1-P6.2{slash}TB3.3-Pad20)*%
X76990000Y-98275584D02*
X73331584Y-101934000D01*
X73331584Y-101934000D02*
X68806000Y-101934000D01*
X76990000Y-94412500D02*
X76990000Y-98275584D01*
X66600000Y-104140000D02*
X66600000Y-105156000D01*
X68806000Y-101934000D02*
X66600000Y-104140000D01*
%TO.N,unconnected-(MSP430FR1-P6.1{slash}TB3.2-Pad21)*%
X68992396Y-102384000D02*
X68072000Y-103304396D01*
X68072000Y-103304396D02*
X68072000Y-107748000D01*
X77490000Y-98411980D02*
X73517980Y-102384000D01*
X77490000Y-94412500D02*
X77490000Y-98411980D01*
X73517980Y-102384000D02*
X68992396Y-102384000D01*
X68072000Y-107748000D02*
X66600000Y-109220000D01*
%TO.N,unconnected-(MSP430FR1-P6.0{slash}TB3.1-Pad22)*%
X77990000Y-94412500D02*
X77990000Y-98548376D01*
X73704376Y-102834000D02*
X69178792Y-102834000D01*
X77990000Y-98548376D02*
X73704376Y-102834000D01*
X68580000Y-103432792D02*
X68580000Y-108458000D01*
X69178792Y-102834000D02*
X68580000Y-103432792D01*
X68580000Y-108458000D02*
X69342000Y-109220000D01*
%TO.N,/Sine_PWM*%
X74490000Y-97117565D02*
X74490000Y-94412500D01*
X73913065Y-97694500D02*
X74490000Y-97117565D01*
%TO.N,/UART_MSP_TX*%
X78490000Y-98684772D02*
X73890772Y-103284000D01*
X72355604Y-103284000D02*
X70612000Y-105027604D01*
X70612000Y-105027604D02*
X70612000Y-105156000D01*
X73890772Y-103284000D02*
X72355604Y-103284000D01*
X78490000Y-94412500D02*
X78490000Y-98684772D01*
%TO.N,unconnected-(MSP430FR1-P4.1{slash}UCA1CLK-Pad25)*%
X73660000Y-104787564D02*
X73660000Y-105156000D01*
X80402500Y-93000000D02*
X82090812Y-93000000D01*
X82354000Y-96093564D02*
X73660000Y-104787564D01*
X82090812Y-93000000D02*
X82354000Y-93263188D01*
X82354000Y-93263188D02*
X82354000Y-96093564D01*
%TO.N,unconnected-(MSP430FR1-P4.0{slash}UCA1STE{slash}ISOTXD{slash}ISORXD-Pad26)*%
X82804000Y-93076792D02*
X82804000Y-96279960D01*
X80402500Y-92500000D02*
X82227208Y-92500000D01*
X75692000Y-103391960D02*
X75692000Y-108458000D01*
X75692000Y-108458000D02*
X74930000Y-109220000D01*
X82804000Y-96279960D02*
X75692000Y-103391960D01*
X82227208Y-92500000D02*
X82804000Y-93076792D01*
%TO.N,unconnected-(MSP430FR1-P5.4-Pad39)*%
X82160792Y-85460000D02*
X80636792Y-83936000D01*
X85344000Y-85185500D02*
X85069500Y-85460000D01*
X80636792Y-83936000D02*
X79027604Y-83936000D01*
X85069500Y-85460000D02*
X82160792Y-85460000D01*
X77990000Y-84973604D02*
X77990000Y-86087500D01*
X79027604Y-83936000D02*
X77990000Y-84973604D01*
%TO.N,unconnected-(MSP430FR1-P5.3{slash}TB2TRG{slash}A11-Pad40)*%
X84328000Y-84735500D02*
X84053500Y-85010000D01*
X80946000Y-83486000D02*
X78841208Y-83486000D01*
X82470000Y-85010000D02*
X80946000Y-83486000D01*
X78841208Y-83486000D02*
X77490000Y-84837208D01*
X77490000Y-84837208D02*
X77490000Y-86087500D01*
X84053500Y-85010000D02*
X82470000Y-85010000D01*
%TO.N,unconnected-(MSP430FR1-P5.2{slash}TB2CLK{slash}A10-Pad41)*%
X81132396Y-83036000D02*
X78654812Y-83036000D01*
X77015000Y-86062500D02*
X76990000Y-86087500D01*
X83492510Y-84037000D02*
X82133396Y-84037000D01*
X78654812Y-83036000D02*
X77015000Y-84675812D01*
X77015000Y-84675812D02*
X77015000Y-86062500D01*
X83510755Y-84018755D02*
X83492510Y-84037000D01*
X82133396Y-84037000D02*
X81132396Y-83036000D01*
%TO.N,unconnected-(MSP430FR1-P5.1{slash}TB2.2{slash}MFM.TX{slash}A9-Pad42)*%
X81318792Y-82586000D02*
X78468416Y-82586000D01*
X76490000Y-84564416D02*
X76490000Y-86087500D01*
X82044792Y-83312000D02*
X81318792Y-82586000D01*
X82804000Y-83312000D02*
X82044792Y-83312000D01*
X78468416Y-82586000D02*
X76490000Y-84564416D01*
%TO.N,unconnected-(MSP430FR1-P5.0{slash}TB2.1{slash}MFM.RX{slash}A8-Pad43)*%
X82296000Y-82410500D02*
X82021500Y-82136000D01*
X75990000Y-84428020D02*
X75990000Y-86087500D01*
X82021500Y-82136000D02*
X78282020Y-82136000D01*
X78282020Y-82136000D02*
X75990000Y-84428020D01*
%TO.N,/UART_MSP_RX*%
X72136000Y-104140000D02*
X72136000Y-109220000D01*
X74077168Y-103734000D02*
X72542000Y-103734000D01*
X72542000Y-103734000D02*
X72136000Y-104140000D01*
X78990000Y-94412500D02*
X78990000Y-98821168D01*
X78990000Y-98821168D02*
X74077168Y-103734000D01*
%TO.N,/Square_Divided*%
X93305000Y-73200000D02*
X91000000Y-75505000D01*
X90965000Y-75540000D02*
X91000000Y-75505000D01*
X93400000Y-73200000D02*
X93305000Y-73200000D01*
X87800000Y-75540000D02*
X90965000Y-75540000D01*
%TO.N,/Sine_Divided*%
X42760000Y-75640000D02*
X45100000Y-73300000D01*
X39500000Y-75640000D02*
X42760000Y-75640000D01*
%TO.N,/Triangle_Divided*%
X74960000Y-75565000D02*
X77300000Y-73225000D01*
X71700000Y-75565000D02*
X74960000Y-75565000D01*
%TO.N,/Sawtooth_Divided*%
X58880000Y-75745000D02*
X61200000Y-73425000D01*
X55700000Y-75745000D02*
X58880000Y-75745000D01*
%TO.N,/9v*%
X57775000Y-97800000D02*
X62230000Y-93345000D01*
X30400000Y-97800000D02*
X57775000Y-97800000D01*
%TO.N,Net-(U2A--)*%
X46990000Y-85725000D02*
X36300000Y-85725000D01*
X33060000Y-88965000D02*
X32100000Y-89925000D01*
X36300000Y-85725000D02*
X33060000Y-88965000D01*
X33060000Y-74600000D02*
X33060000Y-88965000D01*
%TO.N,/Audio_Out*%
X36325000Y-88200000D02*
X34600000Y-89925000D01*
X57215000Y-88200000D02*
X36325000Y-88200000D01*
X59690000Y-85725000D02*
X57215000Y-88200000D01*
%TO.N,/Sawtooth_Isolated*%
X60251000Y-79756000D02*
X58825000Y-78330000D01*
X76843644Y-79756000D02*
X60251000Y-79756000D01*
X99606000Y-80206000D02*
X88970396Y-80206000D01*
X100000000Y-80600000D02*
X99606000Y-80206000D01*
X88200396Y-79436000D02*
X77163644Y-79436000D01*
X77163644Y-79436000D02*
X76843644Y-79756000D01*
X88970396Y-80206000D02*
X88200396Y-79436000D01*
%TO.N,/Triangle_Isolated*%
X103200000Y-82009009D02*
X100946991Y-79756000D01*
X76041000Y-79306000D02*
X74900000Y-78165000D01*
X76977248Y-78986000D02*
X76657248Y-79306000D01*
X103000000Y-84000000D02*
X103200000Y-83800000D01*
X88386792Y-78986000D02*
X76977248Y-78986000D01*
X89156792Y-79756000D02*
X88386792Y-78986000D01*
X100946991Y-79756000D02*
X89156792Y-79756000D01*
X103200000Y-83800000D02*
X103200000Y-82009009D01*
X76657248Y-79306000D02*
X76041000Y-79306000D01*
%TO.N,/Square_Isolated*%
X106400000Y-83600000D02*
X105800000Y-83000000D01*
X109620000Y-82400000D02*
X108420000Y-83600000D01*
X105800000Y-81800000D02*
X102045000Y-78045000D01*
X108420000Y-83600000D02*
X106400000Y-83600000D01*
X102045000Y-78045000D02*
X91000000Y-78045000D01*
X105800000Y-83000000D02*
X105800000Y-81800000D01*
%TO.N,/Square_Analog*%
X105490000Y-80810000D02*
X107080000Y-82400000D01*
X105490000Y-77470000D02*
X105490000Y-80810000D01*
%TO.N,/Sine_Isolated*%
X96920000Y-82400000D02*
X95176000Y-80656000D01*
X88784000Y-80656000D02*
X88014000Y-79886000D01*
X88014000Y-79886000D02*
X77350040Y-79886000D01*
X77030040Y-80206000D02*
X44666000Y-80206000D01*
X77350040Y-79886000D02*
X77030040Y-80206000D01*
X95176000Y-80656000D02*
X88784000Y-80656000D01*
X44666000Y-80206000D02*
X42700000Y-78240000D01*
%TD*%
M02*
