M48
; DRILL file {KiCad 7.0.1-2.fc37} date Thu 06 Apr 2023 04:22:01 PM EDT
; FORMAT={-:-/ absolute / inch / decimal}
; #@! TF.CreationDate,2023-04-06T16:22:01-04:00
; #@! TF.GenerationSoftware,Kicad,Pcbnew,7.0.1-2.fc37
; #@! TF.FileFunction,Plated,1,2,PTH
FMAT,2
INCH
; #@! TA.AperFunction,Plated,PTH,ViaDrill
T1C0.0157
; #@! TA.AperFunction,Plated,PTH,ComponentDrill
T2C0.0236
; #@! TA.AperFunction,Plated,PTH,ComponentDrill
T3C0.0315
; #@! TA.AperFunction,Plated,PTH,ComponentDrill
T4C0.0394
; #@! TA.AperFunction,Plated,PTH,ComponentDrill
T5C0.0433
; #@! TA.AperFunction,Plated,PTH,ComponentDrill
T6C0.0610
%
G90
G05
T1
X1.2697Y-4.0236
X1.2982Y-3.9946
X1.4922Y-3.9009
X1.5207Y-3.9306
X1.5493Y-3.9591
X1.5778Y-3.9879
X1.6063Y-4.0157
X2.4764Y-3.9488
X2.5049Y-3.7785
X2.7017Y-3.5009
X2.7386Y-3.5148
X2.7402Y-3.6887
X2.7717Y-3.4935
X2.7717Y-3.6535
X2.7841Y-3.6909
X2.86Y-3.38
X2.875Y-3.8199
X2.8845Y-3.7817
X2.9Y-3.66
X2.91Y-3.8462
X2.94Y-3.66
X3.24Y-3.2445
X3.26Y-3.28
X3.2878Y-3.3078
X3.32Y-3.336
X3.36Y-3.3538
X3.3622Y-3.5827
X3.3858Y-3.4646
X3.4252Y-3.6004
X3.4252Y-3.4882
X3.4542Y-3.5148
X3.5043Y-3.6279
X3.5276Y-3.2333
X3.5384Y-3.6476
X3.5748Y-3.2362
X3.5755Y-3.6713
X3.5955Y-3.6299
X3.5984Y-3.2707
X3.6294Y-3.6619
X3.6299Y-3.2992
X3.937Y-3.1732
X4.0551Y-3.3071
X4.1157Y-3.9843
X4.4Y-2.6
X4.425Y-2.8
X4.6063Y-3.2677
X4.7193Y-3.6317
X4.7267Y-3.458
X4.7598Y-3.4794
X4.7638Y-3.6378
X4.7983Y-3.4971
X4.8061Y-3.6417
X4.811Y-3.3858
X4.8351Y-3.516
X4.8359Y-3.668
T2
X2.52Y-3.22
X2.58Y-3.38
X2.622Y-3.78
X2.622Y-3.94
X2.622Y-4.14
X2.622Y-4.3
X2.64Y-3.22
X2.7Y-3.38
X2.73Y-4.3
X2.74Y-3.78
X2.76Y-3.22
X2.78Y-4.14
X2.82Y-3.9
X2.84Y-4.3
X2.9Y-4.14
X2.95Y-4.3
X3.18Y-3.74
X3.3Y-3.7
X3.81Y-3.72
X3.81Y-3.83
X3.93Y-3.72
X3.93Y-3.83
X4.19Y-3.73
X4.19Y-3.84
X4.33Y-3.73
X4.33Y-3.84
X4.47Y-3.73
X4.47Y-3.84
X4.6Y-4.01
X4.6Y-4.12
X4.72Y-4.01
X4.72Y-4.12
T3
X1.3016Y-2.937
X1.4016Y-2.937
X1.5551Y-2.878
X1.5551Y-2.978
X1.6811Y-2.9803
X1.6811Y-3.0803
X1.85Y-3.375
X1.85Y-3.675
X1.95Y-3.375
X1.95Y-3.675
X2.05Y-3.375
X2.05Y-3.675
X2.15Y-3.375
X2.15Y-3.675
X2.1929Y-2.8821
X2.1929Y-2.9821
X2.25Y-3.375
X2.25Y-3.675
X2.3159Y-2.9839
X2.3159Y-3.0839
X2.35Y-3.375
X2.35Y-3.675
X2.45Y-3.375
X2.45Y-3.675
X2.8228Y-2.875
X2.8228Y-2.975
X2.9488Y-2.9774
X2.9488Y-3.0774
X3.4567Y-2.874
X3.4567Y-2.974
X3.5827Y-2.9726
X3.5827Y-3.0726
X3.8157Y-3.2441
X3.8157Y-3.5441
X3.9157Y-3.2441
X3.9157Y-3.5441
X4.0157Y-3.2441
X4.0157Y-3.5441
X4.1157Y-3.2441
X4.1157Y-3.5441
X4.1378Y-2.375
X4.1531Y-3.05
X4.1774Y-2.55
X4.1907Y-2.8502
X4.2157Y-3.2441
X4.2157Y-3.5441
X4.2774Y-2.55
X4.2907Y-2.8502
X4.3157Y-3.2441
X4.3157Y-3.5441
X4.3346Y-2.375
X4.35Y-3.05
X4.4157Y-3.2441
X4.4157Y-3.5441
X4.5726Y-3.05
X4.5766Y-2.375
X4.6299Y-2.8504
X4.6339Y-2.55
X4.7299Y-2.8504
X4.7339Y-2.55
X4.7695Y-3.05
X4.7734Y-2.375
T4
X1.2638Y-3.5404
X1.3622Y-3.5404
X1.4606Y-3.5404
X1.7756Y-2.8858
X1.874Y-2.8858
X1.9724Y-2.8858
X2.4094Y-2.8907
X2.5079Y-2.8907
X2.6063Y-2.8907
X3.0433Y-2.8829
X3.1417Y-2.8829
X3.2402Y-2.8829
X3.6772Y-2.8819
X3.7756Y-2.8819
X3.874Y-2.8819
T5
X1.4469Y-4.5079
X1.4469Y-4.685
X1.4469Y-5.5217
X1.4469Y-5.6988
X1.7028Y-4.1339
X1.7028Y-4.311
X1.7028Y-4.5079
X1.7028Y-4.685
X1.7028Y-5.5217
X1.7028Y-5.6988
X1.7126Y-5.1181
X1.7126Y-5.2953
X1.939Y-4.5079
X1.939Y-4.685
X1.939Y-5.5217
X1.939Y-5.6988
X1.9587Y-4.1339
X1.9587Y-4.311
X1.9685Y-5.1181
X1.9685Y-5.2953
X2.185Y-4.1339
X2.185Y-4.311
X2.1949Y-4.5079
X2.1949Y-4.685
X2.1949Y-5.5217
X2.1949Y-5.6988
X2.2047Y-5.1181
X2.2047Y-5.2953
X2.4213Y-4.5079
X2.4213Y-4.685
X2.4311Y-5.5217
X2.4311Y-5.6988
X2.4409Y-4.1339
X2.4409Y-4.311
X2.4606Y-5.1181
X2.4606Y-5.2953
X2.6772Y-4.5079
X2.6772Y-4.685
X2.687Y-5.5217
X2.687Y-5.6988
X2.8937Y-5.5315
X2.8937Y-5.7087
X2.9134Y-4.5079
X2.9134Y-4.685
X3.1201Y-4.1339
X3.1201Y-4.311
X3.1299Y-5.1181
X3.1299Y-5.2953
X3.1496Y-5.5315
X3.1496Y-5.7087
X3.1693Y-4.5079
X3.1693Y-4.685
X3.3563Y-5.5315
X3.3563Y-5.7087
X3.376Y-4.1339
X3.376Y-4.311
X3.3858Y-4.5079
X3.3858Y-4.685
X3.3858Y-5.1181
X3.3858Y-5.2953
X3.6122Y-5.1181
X3.6122Y-5.2953
X3.6122Y-5.5315
X3.6122Y-5.7087
X3.622Y-4.1339
X3.622Y-4.311
X3.6417Y-4.5079
X3.6417Y-4.685
X3.8287Y-5.5315
X3.8287Y-5.7087
X3.8484Y-4.5177
X3.8484Y-4.6949
X3.8681Y-5.1181
X3.8681Y-5.2953
X3.878Y-4.1339
X3.878Y-4.311
X4.0846Y-5.128
X4.0846Y-5.3051
X4.0846Y-5.5315
X4.0846Y-5.7087
X4.1043Y-4.1437
X4.1043Y-4.3209
X4.1043Y-4.5177
X4.1043Y-4.6949
X4.3209Y-5.5315
X4.3209Y-5.7087
X4.3307Y-4.5177
X4.3307Y-4.6949
X4.3406Y-5.128
X4.3406Y-5.3051
X4.3602Y-4.1437
X4.3602Y-4.3209
X4.5768Y-5.5315
X4.5768Y-5.7087
X4.5866Y-4.5177
X4.5866Y-4.6949
T6
X1.1969Y-3.6732
X1.1969Y-3.8504
X1.2008Y-4.2126
X1.2087Y-2.5945
X1.2087Y-2.7756
T5
G00X1.1732Y-3.2589
M15
G01X1.1732Y-3.2313
M16
G05
G00X1.5512Y-3.2589
M15
G01X1.5512Y-3.2313
M16
G05
G00X1.685Y-2.6043
M15
G01X1.685Y-2.5768
M16
G05
G00X2.063Y-2.6043
M15
G01X2.063Y-2.5768
M16
G05
G00X2.3189Y-2.6093
M15
G01X2.3189Y-2.5817
M16
G05
G00X2.6969Y-2.6093
M15
G01X2.6969Y-2.5817
M16
G05
G00X2.9528Y-2.6014
M15
G01X2.9528Y-2.5738
M16
G05
G00X3.3307Y-2.6014
M15
G01X3.3307Y-2.5738
M16
G05
G00X3.5866Y-2.6004
M15
G01X3.5866Y-2.5728
M16
G05
G00X3.9646Y-2.6004
M15
G01X3.9646Y-2.5728
M16
G05
T0
M30
