%TF.GenerationSoftware,KiCad,Pcbnew,7.0.1-2.fc37*%
%TF.CreationDate,2023-04-06T11:21:41-04:00*%
%TF.ProjectId,synthesizer,73796e74-6865-4736-997a-65722e6b6963,rev?*%
%TF.SameCoordinates,Original*%
%TF.FileFunction,Soldermask,Top*%
%TF.FilePolarity,Negative*%
%FSLAX46Y46*%
G04 Gerber Fmt 4.6, Leading zero omitted, Abs format (unit mm)*
G04 Created by KiCad (PCBNEW 7.0.1-2.fc37) date 2023-04-06 11:21:41*
%MOMM*%
%LPD*%
G01*
G04 APERTURE LIST*
G04 Aperture macros list*
%AMRoundRect*
0 Rectangle with rounded corners*
0 $1 Rounding radius*
0 $2 $3 $4 $5 $6 $7 $8 $9 X,Y pos of 4 corners*
0 Add a 4 corners polygon primitive as box body*
4,1,4,$2,$3,$4,$5,$6,$7,$8,$9,$2,$3,0*
0 Add four circle primitives for the rounded corners*
1,1,$1+$1,$2,$3*
1,1,$1+$1,$4,$5*
1,1,$1+$1,$6,$7*
1,1,$1+$1,$8,$9*
0 Add four rect primitives between the rounded corners*
20,1,$1+$1,$2,$3,$4,$5,0*
20,1,$1+$1,$4,$5,$6,$7,0*
20,1,$1+$1,$6,$7,$8,$9,0*
20,1,$1+$1,$8,$9,$2,$3,0*%
G04 Aperture macros list end*
%ADD10C,2.000000*%
%ADD11C,1.600000*%
%ADD12RoundRect,0.250000X-0.550000X-0.550000X0.550000X-0.550000X0.550000X0.550000X-0.550000X0.550000X0*%
%ADD13O,1.600000X1.600000*%
%ADD14R,1.600000X1.600000*%
%ADD15O,2.720000X3.240000*%
%ADD16R,1.800000X1.800000*%
%ADD17C,1.800000*%
%ADD18C,3.500000*%
%ADD19RoundRect,0.075000X-0.662500X-0.075000X0.662500X-0.075000X0.662500X0.075000X-0.662500X0.075000X0*%
%ADD20RoundRect,0.075000X-0.075000X-0.662500X0.075000X-0.662500X0.075000X0.662500X-0.075000X0.662500X0*%
%ADD21R,3.600000X3.600000*%
%ADD22RoundRect,0.250002X-1.499998X-1.499998X1.499998X-1.499998X1.499998X1.499998X-1.499998X1.499998X0*%
G04 APERTURE END LIST*
D10*
%TO.C,F#_4*%
X79250000Y-105000000D03*
X85750000Y-105000000D03*
X79250000Y-109500000D03*
X85750000Y-109500000D03*
%TD*%
D11*
%TO.C,C_Sin1*%
X121145000Y-77470000D03*
X116145000Y-77470000D03*
%TD*%
D10*
%TO.C,D_3*%
X49250000Y-140250000D03*
X55750000Y-140250000D03*
X49250000Y-144750000D03*
X55750000Y-144750000D03*
%TD*%
D12*
%TO.C,3v3*%
X116840000Y-101854000D03*
%TD*%
D11*
%TO.C,R3*%
X42700000Y-78240000D03*
D13*
X42700000Y-75700000D03*
%TD*%
D14*
%TO.C,U2*%
X62230000Y-85725000D03*
D13*
X59690000Y-85725000D03*
X57150000Y-85725000D03*
X54610000Y-85725000D03*
X52070000Y-85725000D03*
X49530000Y-85725000D03*
X46990000Y-85725000D03*
X46990000Y-93345000D03*
X49530000Y-93345000D03*
X52070000Y-93345000D03*
X54610000Y-93345000D03*
X57150000Y-93345000D03*
X59690000Y-93345000D03*
X62230000Y-93345000D03*
%TD*%
D10*
%TO.C,A#_4*%
X104250000Y-105250000D03*
X110750000Y-105250000D03*
X104250000Y-109750000D03*
X110750000Y-109750000D03*
%TD*%
%TO.C,C_4*%
X36750000Y-114500000D03*
X43250000Y-114500000D03*
X36750000Y-119000000D03*
X43250000Y-119000000D03*
%TD*%
%TO.C,E_4*%
X61500000Y-114500000D03*
X68000000Y-114500000D03*
X61500000Y-119000000D03*
X68000000Y-119000000D03*
%TD*%
D11*
%TO.C,R2*%
X91000000Y-78045000D03*
D13*
X91000000Y-75505000D03*
%TD*%
D11*
%TO.C,40*%
X65532000Y-85852000D03*
%TD*%
%TO.C,20*%
X66600000Y-105156000D03*
%TD*%
D15*
%TO.C,R_Sine_Mix1*%
X42800000Y-65800000D03*
X52400000Y-65800000D03*
D16*
X45100000Y-73300000D03*
D17*
X47600000Y-73300000D03*
X50100000Y-73300000D03*
%TD*%
D11*
%TO.C,GND*%
X109982000Y-94742000D03*
%TD*%
%TO.C,GND*%
X113538000Y-97536000D03*
%TD*%
%TO.C,GND*%
X106426000Y-97536000D03*
%TD*%
%TO.C,24*%
X72136000Y-109220000D03*
%TD*%
%TO.C,R7*%
X58825000Y-78330000D03*
D13*
X58825000Y-75790000D03*
%TD*%
D11*
%TO.C,18*%
X66600000Y-96012000D03*
%TD*%
%TO.C,GND*%
X109982000Y-97536000D03*
%TD*%
D12*
%TO.C,3v3*%
X116840000Y-104648000D03*
%TD*%
D14*
%TO.C,U3*%
X96920000Y-90020000D03*
D13*
X99460000Y-90020000D03*
X102000000Y-90020000D03*
X104540000Y-90020000D03*
X107080000Y-90020000D03*
X109620000Y-90020000D03*
X112160000Y-90020000D03*
X112160000Y-82400000D03*
X109620000Y-82400000D03*
X107080000Y-82400000D03*
X104540000Y-82400000D03*
X102000000Y-82400000D03*
X99460000Y-82400000D03*
X96920000Y-82400000D03*
%TD*%
D10*
%TO.C,F#_3*%
X79500000Y-130000000D03*
X86000000Y-130000000D03*
X79500000Y-134500000D03*
X86000000Y-134500000D03*
%TD*%
D11*
%TO.C,16*%
X71628000Y-99060000D03*
%TD*%
%TO.C,NC*%
X99822000Y-94488000D03*
%TD*%
%TO.C,41*%
X70104000Y-81788000D03*
%TD*%
%TO.C,43*%
X64008000Y-81788000D03*
%TD*%
D10*
%TO.C,A_3*%
X97250000Y-140500000D03*
X103750000Y-140500000D03*
X97250000Y-145000000D03*
X103750000Y-145000000D03*
%TD*%
D11*
%TO.C,C_Saw1*%
X121245000Y-60325000D03*
X116245000Y-60325000D03*
%TD*%
%TO.C,R_Sq1*%
X108985000Y-72395000D03*
D13*
X106445000Y-72395000D03*
%TD*%
D10*
%TO.C,B_3*%
X109750000Y-140500000D03*
X116250000Y-140500000D03*
X109750000Y-145000000D03*
X116250000Y-145000000D03*
%TD*%
D15*
%TO.C,R_Triangle_Mix1*%
X75000000Y-65725000D03*
X84600000Y-65725000D03*
D16*
X77300000Y-73225000D03*
D17*
X79800000Y-73225000D03*
X82300000Y-73225000D03*
%TD*%
D10*
%TO.C,G#_3*%
X91750000Y-130000000D03*
X98250000Y-130000000D03*
X91750000Y-134500000D03*
X98250000Y-134500000D03*
%TD*%
%TO.C,A_4*%
X97750000Y-114750000D03*
X104250000Y-114750000D03*
X97750000Y-119250000D03*
X104250000Y-119250000D03*
%TD*%
%TO.C,G_3*%
X85250000Y-140500000D03*
X91750000Y-140500000D03*
X85250000Y-145000000D03*
X91750000Y-145000000D03*
%TD*%
D11*
%TO.C,4*%
X83820000Y-93980000D03*
%TD*%
D10*
%TO.C,F_3*%
X73500000Y-140500000D03*
X80000000Y-140500000D03*
X73500000Y-145000000D03*
X80000000Y-145000000D03*
%TD*%
D18*
%TO.C,GND*%
X30700000Y-65900000D03*
%TD*%
D11*
%TO.C,GND*%
X106426000Y-94742000D03*
%TD*%
%TO.C,NC*%
X96774000Y-94488000D03*
%TD*%
D10*
%TO.C,D#_4*%
X55500000Y-105000000D03*
X62000000Y-105000000D03*
X55500000Y-109500000D03*
X62000000Y-109500000D03*
%TD*%
%TO.C,E_3*%
X61750000Y-140250000D03*
X68250000Y-140250000D03*
X61750000Y-144750000D03*
X68250000Y-144750000D03*
%TD*%
D11*
%TO.C,19*%
X66600000Y-100076000D03*
%TD*%
D12*
%TO.C,3v3*%
X119888000Y-104648000D03*
%TD*%
D11*
%TO.C,23*%
X70612000Y-105156000D03*
%TD*%
%TO.C,26*%
X74930000Y-109220000D03*
%TD*%
%TO.C,R8*%
X55700000Y-75745000D03*
D13*
X55700000Y-73205000D03*
%TD*%
D11*
%TO.C,R_Saw1*%
X117700000Y-64770000D03*
D13*
X120240000Y-64770000D03*
%TD*%
D11*
%TO.C,R_Sin1*%
X117600000Y-72400000D03*
D13*
X120140000Y-72400000D03*
%TD*%
D11*
%TO.C,R1*%
X87800000Y-75540000D03*
D13*
X87800000Y-73000000D03*
%TD*%
D11*
%TO.C,R_T1*%
X108645000Y-64770000D03*
D13*
X106105000Y-64770000D03*
%TD*%
D10*
%TO.C,G_4*%
X86000000Y-114500000D03*
X92500000Y-114500000D03*
X86000000Y-119000000D03*
X92500000Y-119000000D03*
%TD*%
D11*
%TO.C,C_T1*%
X105100000Y-60325000D03*
X110100000Y-60325000D03*
%TD*%
%TO.C,R6*%
X71700000Y-75565000D03*
D13*
X71700000Y-73025000D03*
%TD*%
D19*
%TO.C,MSP430FR1*%
X72077500Y-87500000D03*
X72077500Y-88000000D03*
X72077500Y-88500000D03*
X72077500Y-89000000D03*
X72077500Y-89500000D03*
X72077500Y-90000000D03*
X72077500Y-90500000D03*
X72077500Y-91000000D03*
X72077500Y-91500000D03*
X72077500Y-92000000D03*
X72077500Y-92500000D03*
X72077500Y-93000000D03*
D20*
X73490000Y-94412500D03*
X73990000Y-94412500D03*
X74490000Y-94412500D03*
X74990000Y-94412500D03*
X75490000Y-94412500D03*
X75990000Y-94412500D03*
X76490000Y-94412500D03*
X76990000Y-94412500D03*
X77490000Y-94412500D03*
X77990000Y-94412500D03*
X78490000Y-94412500D03*
X78990000Y-94412500D03*
D19*
X80402500Y-93000000D03*
X80402500Y-92500000D03*
X80402500Y-92000000D03*
X80402500Y-91500000D03*
X80402500Y-91000000D03*
X80402500Y-90500000D03*
X80402500Y-90000000D03*
X80402500Y-89500000D03*
X80402500Y-89000000D03*
X80402500Y-88500000D03*
X80402500Y-88000000D03*
X80402500Y-87500000D03*
D20*
X78990000Y-86087500D03*
X78490000Y-86087500D03*
X77990000Y-86087500D03*
X77490000Y-86087500D03*
X76990000Y-86087500D03*
X76490000Y-86087500D03*
X75990000Y-86087500D03*
X75490000Y-86087500D03*
X74990000Y-86087500D03*
X74490000Y-86087500D03*
X73990000Y-86087500D03*
X73490000Y-86087500D03*
D21*
X76240000Y-90250000D03*
%TD*%
D11*
%TO.C,42*%
X67056000Y-81788000D03*
%TD*%
D10*
%TO.C,G#_4*%
X92000000Y-105000000D03*
X98500000Y-105000000D03*
X92000000Y-109500000D03*
X98500000Y-109500000D03*
%TD*%
%TO.C,D#_3*%
X56000000Y-130000000D03*
X62500000Y-130000000D03*
X56000000Y-134500000D03*
X62500000Y-134500000D03*
%TD*%
D15*
%TO.C,R_Volume1*%
X29800000Y-82425000D03*
X39400000Y-82425000D03*
D16*
X32100000Y-89925000D03*
D17*
X34600000Y-89925000D03*
X37100000Y-89925000D03*
%TD*%
D11*
%TO.C,R4*%
X39500000Y-75640000D03*
D13*
X39500000Y-73100000D03*
%TD*%
D22*
%TO.C,Audio Out*%
X30700000Y-70500000D03*
%TD*%
D18*
%TO.C,GND*%
X30400000Y-93300000D03*
%TD*%
D10*
%TO.C,C#_3*%
X43500000Y-130000000D03*
X50000000Y-130000000D03*
X43500000Y-134500000D03*
X50000000Y-134500000D03*
%TD*%
D15*
%TO.C,P_Square_Mix1*%
X91100000Y-65700000D03*
X100700000Y-65700000D03*
D16*
X93400000Y-73200000D03*
D17*
X95900000Y-73200000D03*
X98400000Y-73200000D03*
%TD*%
D10*
%TO.C,A#_3*%
X103750000Y-130250000D03*
X110250000Y-130250000D03*
X103750000Y-134750000D03*
X110250000Y-134750000D03*
%TD*%
%TO.C,B_4*%
X110000000Y-114750000D03*
X116500000Y-114750000D03*
X110000000Y-119250000D03*
X116500000Y-119250000D03*
%TD*%
D12*
%TO.C,3v3*%
X119888000Y-101854000D03*
%TD*%
D15*
%TO.C,R_Sawtooth_Mix1*%
X58900000Y-65925000D03*
X68500000Y-65925000D03*
D16*
X61200000Y-73425000D03*
D17*
X63700000Y-73425000D03*
X66200000Y-73425000D03*
%TD*%
D10*
%TO.C,C_3*%
X36750000Y-140250000D03*
X43250000Y-140250000D03*
X36750000Y-144750000D03*
X43250000Y-144750000D03*
%TD*%
%TO.C,D_4*%
X49250000Y-114500000D03*
X55750000Y-114500000D03*
X49250000Y-119000000D03*
X55750000Y-119000000D03*
%TD*%
D11*
%TO.C,GND*%
X113538000Y-94742000D03*
%TD*%
D22*
%TO.C,3.3v*%
X30500000Y-107000000D03*
%TD*%
D11*
%TO.C,R9*%
X33060000Y-74600000D03*
D13*
X35600000Y-74600000D03*
%TD*%
D11*
%TO.C,22*%
X69342000Y-109220000D03*
%TD*%
%TO.C,5*%
X80772000Y-94996000D03*
%TD*%
%TO.C,C_Sq1*%
X105490000Y-77470000D03*
X110490000Y-77470000D03*
%TD*%
D10*
%TO.C,C#_4*%
X43250000Y-105000000D03*
X49750000Y-105000000D03*
X43250000Y-109500000D03*
X49750000Y-109500000D03*
%TD*%
D11*
%TO.C,25*%
X73660000Y-105156000D03*
%TD*%
%TO.C,39*%
X68580000Y-85852000D03*
%TD*%
D10*
%TO.C,F_4*%
X74000000Y-114500000D03*
X80500000Y-114500000D03*
X74000000Y-119000000D03*
X80500000Y-119000000D03*
%TD*%
D11*
%TO.C,R5*%
X74900000Y-78165000D03*
D13*
X74900000Y-75625000D03*
%TD*%
D22*
%TO.C,9v*%
X30400000Y-97800000D03*
%TD*%
D11*
%TO.C,17*%
X69596000Y-96012000D03*
%TD*%
%TO.C,21*%
X66600000Y-109220000D03*
%TD*%
%TO.C,NC*%
X96774000Y-97282000D03*
%TD*%
%TO.C,NC*%
X99822000Y-97282000D03*
%TD*%
M02*
