%TF.GenerationSoftware,KiCad,Pcbnew,7.0.1-2.fc37*%
%TF.CreationDate,2023-04-06T11:21:41-04:00*%
%TF.ProjectId,synthesizer,73796e74-6865-4736-997a-65722e6b6963,rev?*%
%TF.SameCoordinates,Original*%
%TF.FileFunction,Paste,Top*%
%TF.FilePolarity,Positive*%
%FSLAX46Y46*%
G04 Gerber Fmt 4.6, Leading zero omitted, Abs format (unit mm)*
G04 Created by KiCad (PCBNEW 7.0.1-2.fc37) date 2023-04-06 11:21:41*
%MOMM*%
%LPD*%
G01*
G04 APERTURE LIST*
G04 Aperture macros list*
%AMRoundRect*
0 Rectangle with rounded corners*
0 $1 Rounding radius*
0 $2 $3 $4 $5 $6 $7 $8 $9 X,Y pos of 4 corners*
0 Add a 4 corners polygon primitive as box body*
4,1,4,$2,$3,$4,$5,$6,$7,$8,$9,$2,$3,0*
0 Add four circle primitives for the rounded corners*
1,1,$1+$1,$2,$3*
1,1,$1+$1,$4,$5*
1,1,$1+$1,$6,$7*
1,1,$1+$1,$8,$9*
0 Add four rect primitives between the rounded corners*
20,1,$1+$1,$2,$3,$4,$5,0*
20,1,$1+$1,$4,$5,$6,$7,0*
20,1,$1+$1,$6,$7,$8,$9,0*
20,1,$1+$1,$8,$9,$2,$3,0*%
G04 Aperture macros list end*
%ADD10RoundRect,0.242500X-0.242500X-0.242500X0.242500X-0.242500X0.242500X0.242500X-0.242500X0.242500X0*%
%ADD11RoundRect,0.075000X-0.662500X-0.075000X0.662500X-0.075000X0.662500X0.075000X-0.662500X0.075000X0*%
%ADD12RoundRect,0.075000X-0.075000X-0.662500X0.075000X-0.662500X0.075000X0.662500X-0.075000X0.662500X0*%
G04 APERTURE END LIST*
D10*
%TO.C,MSP430FR1*%
X75040000Y-89050000D03*
X75040000Y-90250000D03*
X75040000Y-91450000D03*
X76240000Y-89050000D03*
X76240000Y-90250000D03*
X76240000Y-91450000D03*
X77440000Y-89050000D03*
X77440000Y-90250000D03*
X77440000Y-91450000D03*
D11*
X72077500Y-87500000D03*
X72077500Y-88000000D03*
X72077500Y-88500000D03*
X72077500Y-89000000D03*
X72077500Y-89500000D03*
X72077500Y-90000000D03*
X72077500Y-90500000D03*
X72077500Y-91000000D03*
X72077500Y-91500000D03*
X72077500Y-92000000D03*
X72077500Y-92500000D03*
X72077500Y-93000000D03*
D12*
X73490000Y-94412500D03*
X73990000Y-94412500D03*
X74490000Y-94412500D03*
X74990000Y-94412500D03*
X75490000Y-94412500D03*
X75990000Y-94412500D03*
X76490000Y-94412500D03*
X76990000Y-94412500D03*
X77490000Y-94412500D03*
X77990000Y-94412500D03*
X78490000Y-94412500D03*
X78990000Y-94412500D03*
D11*
X80402500Y-93000000D03*
X80402500Y-92500000D03*
X80402500Y-92000000D03*
X80402500Y-91500000D03*
X80402500Y-91000000D03*
X80402500Y-90500000D03*
X80402500Y-90000000D03*
X80402500Y-89500000D03*
X80402500Y-89000000D03*
X80402500Y-88500000D03*
X80402500Y-88000000D03*
X80402500Y-87500000D03*
D12*
X78990000Y-86087500D03*
X78490000Y-86087500D03*
X77990000Y-86087500D03*
X77490000Y-86087500D03*
X76990000Y-86087500D03*
X76490000Y-86087500D03*
X75990000Y-86087500D03*
X75490000Y-86087500D03*
X74990000Y-86087500D03*
X74490000Y-86087500D03*
X73990000Y-86087500D03*
X73490000Y-86087500D03*
%TD*%
M02*
